PathFileType	4	(X/Y/Z)	C:/Users/opensim2020/Desktop/walking_exp_matlab/subject01_walking13_straight_03.trc	
DataRate	CameraRate	NumFrames	NumMarkers	Units	OrigDataRate	OrigDataStartFrame	OrigNumFrames	
100.00	100.00	7	42	mm	100.00	1599	128	
Frame#	Time	LFHD			RFHD			LBHD			RBHD			C7			T10			CLAV			STRN			RBAK			LSHO			LUPA			LELB			LFRM			LWRA			LWRB			LFIN			RSHO			RUPA			RELB			RFRM			RWRA			RWRB			RFIN			LASI			RASI			LPSI			RPSI			LTHI			LKNE			LTIB			LANK			LHEE			LTOE			RTHI			RKNE			RTIB			RANK			RHEE			RTOE			*39			*40			*41			
		X1	Y1	Z1	X2	Y2	Z2	X3	Y3	Z3	X4	Y4	Z4	X5	Y5	Z5	X6	Y6	Z6	X7	Y7	Z7	X8	Y8	Z8	X9	Y9	Z9	X10	Y10	Z10	X11	Y11	Z11	X12	Y12	Z12	X13	Y13	Z13	X14	Y14	Z14	X15	Y15	Z15	X16	Y16	Z16	X17	Y17	Z17	X18	Y18	Z18	X19	Y19	Z19	X20	Y20	Z20	X21	Y21	Z21	X22	Y22	Z22	X23	Y23	Z23	X24	Y24	Z24	X25	Y25	Z25	X26	Y26	Z26	X27	Y27	Z27	X28	Y28	Z28	X29	Y29	Z29	X30	Y30	Z30	X31	Y31	Z31	X32	Y32	Z32	X33	Y33	Z33	X34	Y34	Z34	X35	Y35	Z35	X36	Y36	Z36	X37	Y37	Z37	X38	Y38	Z38	X39	Y39	Z39	X40	Y40	Z40	X41	Y41	Z41	X42	Y42	Z42	

1	0.000	-1064.82617	-744.28802	1652.87146	-953.95746	-724.40894	1661.36011	-1049.45178	-851.40845	1590.42371	-930.57629	-832.62512	1597.13318	-1002.90729	-860.26160	1412.55994	-983.55988	-908.04828	1121.50696	-1005.45673	-713.16583	1343.58569	-1003.04474	-678.22900	1186.26550	-908.73499	-917.65686	1227.89392	-1164.68701	-783.32855	1369.18372	-1238.18262	-856.36200	1194.85852	-1229.51294	-904.32349	1051.70178	-1249.61414	-895.69574	936.50336	-1225.80859	-845.75610	806.61041	-1248.62207	-901.48792	813.73993	-1255.16211	-872.15320	734.21936	-853.07227	-768.94775	1380.03540	-730.06018	-815.97565	1194.87085	-710.79590	-808.62836	1067.41284	-712.80634	-717.18298	979.21942	-778.17902	-599.99811	935.50726	-731.03412	-619.29559	908.57721	-749.41748	-543.40576	881.84283	-1083.20276	-726.91162	915.97253	-865.99677	-746.78381	910.81384	-1050.21680	-917.88068	923.85712	-907.69385	-929.46368	932.04382	-1176.08289	-682.86243	606.23816	-1162.04053	-644.84351	479.73044	-1185.07544	-630.21124	295.73434	-1152.77332	-560.06836	78.11381	-1096.19299	-585.81915	33.27511	-1164.37903	-411.42435	91.31909	-827.29999	-872.68518	588.34100	-858.09711	-905.51190	431.02356	-854.59711	-1007.58752	285.96487	-909.00922	-1094.96021	98.49368	-957.03711	-1155.64990	76.94702	-922.16144	-970.27802	29.19473	-974.34961	-742.80811	1692.68237	-3102.40381	1972.98340	1024.12598	-3138.59863	2013.06824	1022.32593 
2	0.010	-1068.59058	-733.68927	1652.01978	-957.18213	-713.36359	1661.31287	-1053.10767	-840.75629	1589.60303	-934.24121	-822.09949	1596.66040	-1006.56360	-849.09680	1411.45947	-986.95288	-896.21277	1120.44116	-1008.47284	-701.73419	1342.81677	-1005.22351	-666.49475	1185.67004	-912.43933	-906.60815	1226.87012	-1167.84387	-770.89783	1367.80688	-1241.44043	-843.11450	1193.04358	-1232.45605	-891.10181	1050.09778	-1252.43445	-883.41101	935.03607	-1228.23010	-835.00195	804.51953	-1251.25574	-890.52753	812.12048	-1257.58899	-862.16504	732.38623	-856.25842	-758.70892	1379.20569	-732.98682	-805.78253	1194.33447	-713.36963	-798.05243	1066.96899	-714.92682	-706.52692	978.82806	-779.93713	-589.11169	934.97919	-732.74182	-608.47174	908.33057	-750.81104	-532.64618	881.51074	-1085.21399	-714.25739	914.81232	-868.08435	-734.97229	910.21320	-1053.47241	-905.31561	922.87677	-911.01788	-917.48608	931.37878	-1176.95435	-669.45563	605.50671	-1162.86438	-632.96301	478.46887	-1184.45093	-619.92181	293.66034	-1151.25684	-550.82648	76.02471	-1094.28491	-576.52405	31.54943	-1163.53821	-402.55856	88.28822	-828.52020	-862.39313	588.47272	-858.45221	-896.11035	430.94037	-854.82196	-1001.03510	287.94727	-908.07513	-1092.54504	101.85828	-955.93250	-1153.82068	82.19406	-921.97754	-969.94043	29.16230	-978.23248	-732.36304	1692.11707	-3102.54785	1972.92004	1024.13196	-3138.57202	2013.08093	1022.29938 
3	0.020	-1072.49915	-722.99353	1651.21448	-961.77325	-703.49536	1660.30078	-1056.96179	-830.11786	1588.76428	-938.12653	-811.58008	1596.21594	-1010.32733	-838.10834	1410.43884	-990.26733	-884.17017	1119.42676	-1011.18683	-690.32727	1342.14624	-1007.56647	-654.52325	1185.11792	-916.27771	-895.15381	1225.62585	-1170.96948	-758.33270	1366.46814	-1244.87378	-829.63928	1191.29407	-1235.50598	-877.55597	1048.55200	-1255.36560	-870.68542	933.56110	-1230.79675	-823.60321	802.56128	-1254.14331	-878.93549	810.76727	-1260.75867	-851.42499	730.86060	-859.27411	-748.19922	1378.67712	-735.99481	-795.68677	1194.03247	-716.09894	-787.70209	1066.61841	-717.02740	-696.20190	978.36279	-781.46216	-578.69708	934.14380	-734.38104	-598.75793	907.47992	-752.14136	-522.73804	880.70612	-1087.56714	-701.33997	913.91089	-870.35339	-722.74286	909.61157	-1056.47009	-892.59979	922.12494	-914.23737	-905.10321	930.68481	-1177.17505	-655.36060	605.04297	-1163.17212	-620.53113	477.46759	-1183.57629	-610.51575	291.40594	-1149.34204	-544.17639	73.14710	-1092.69775	-570.89673	30.34377	-1162.55566	-395.68753	83.71530	-829.81964	-851.46930	588.57672	-858.70441	-886.17462	430.94287	-854.92291	-994.24170	290.01617	-907.00824	-1089.80896	105.61601	-954.49500	-1151.08289	87.32809	-921.88544	-969.77393	29.19940	-982.50018	-721.86481	1691.28918	-3102.35010	1973.00781	1024.10461	-3138.62085	2013.05688	1022.36517 
4	0.030	-1076.46045	-712.25464	1650.41382	-964.99127	-692.31561	1660.48865	-1060.96436	-819.33044	1587.94775	-942.11926	-801.06079	1595.85254	-1014.15692	-826.54828	1409.17065	-993.67023	-871.80280	1118.28772	-1014.02515	-678.90222	1341.61328	-1010.01819	-642.34479	1184.73364	-920.12506	-883.77435	1224.54199	-1174.37354	-745.88708	1365.35315	-1248.21362	-815.99921	1189.53955	-1238.66589	-863.65179	1047.03687	-1258.35754	-857.41571	932.14197	-1233.50342	-811.53125	800.73907	-1257.38757	-866.59833	809.46179	-1263.75220	-839.73151	729.29028	-862.44543	-737.62189	1378.50793	-739.16699	-785.71185	1193.77246	-718.97900	-777.53113	1066.35815	-719.27460	-686.41003	977.75598	-782.89703	-568.70868	932.96851	-735.80042	-589.07532	906.56537	-752.92328	-512.83813	879.28967	-1090.10425	-688.18445	913.07532	-872.78607	-710.28284	909.01581	-1059.46375	-879.57880	921.27112	-917.33057	-892.41412	929.98627	-1177.17969	-640.93427	604.76526	-1163.06982	-607.76990	476.58203	-1182.46558	-601.80542	288.87466	-1147.32715	-539.28088	70.45804	-1091.13733	-567.50421	29.77808	-1161.57532	-391.13364	77.88268	-831.13611	-840.20245	588.50519	-859.16370	-875.50446	430.60773	-855.07288	-986.70795	292.09335	-905.86768	-1086.98474	109.88090	-953.11493	-1148.64282	93.69074	-921.72815	-969.20184	29.03706	-986.69592	-711.26428	1690.66748	-3102.72729	1972.87219	1023.97327	-3138.23462	2013.10938	1022.52136 
5	0.040	-1080.56616	-701.37573	1649.64832	-969.72522	-682.45013	1659.46411	-1065.05383	-808.57422	1587.28552	-946.27612	-790.81287	1595.56702	-1018.20166	-815.65588	1408.15698	-997.01385	-859.19562	1117.04883	-1016.76276	-667.32532	1341.11792	-1012.66168	-629.95172	1184.52734	-924.05725	-872.23907	1223.34900	-1177.81934	-733.30383	1364.41772	-1251.68115	-802.18115	1187.87268	-1241.97168	-849.53265	1045.51160	-1261.58411	-843.62445	930.76031	-1236.37000	-798.72986	799.03125	-1260.44507	-853.61871	808.05957	-1266.66187	-827.16144	727.68921	-865.99469	-727.40869	1377.77832	-742.43579	-775.99030	1193.60425	-721.94598	-767.71393	1066.22449	-721.32495	-676.93286	977.00989	-784.00659	-559.25214	931.51489	-737.40619	-579.73694	905.51520	-753.69153	-503.91592	877.51965	-1092.70630	-674.98163	912.43073	-875.38086	-697.29431	908.38574	-1062.27917	-866.53766	920.52423	-920.20984	-879.49939	929.43854	-1176.49841	-626.49664	604.20789	-1163.22253	-595.08978	475.40076	-1181.04492	-593.66296	286.26013	-1145.39380	-535.92224	68.22538	-1090.05920	-565.97644	30.27955	-1160.22449	-386.92950	69.78738	-832.61987	-828.10095	588.27356	-859.71136	-864.09723	430.12961	-855.15576	-978.70422	294.27072	-904.72089	-1083.45056	114.26836	-951.93738	-1145.14587	99.58418	-921.68463	-968.89355	29.07026	-990.83557	-700.67023	1690.39978	-3102.97778	1972.73987	1024.66370	-3138.34839	2013.06445	1022.43243 
6	0.050	-1084.74109	-690.36542	1649.35583	-973.80841	-671.65326	1659.48242	-1069.32800	-797.47528	1586.74097	-950.36707	-779.87366	1595.38672	-1022.30835	-804.09790	1407.19849	-1000.37659	-846.39966	1115.86743	-1020.03223	-655.68671	1340.90137	-1015.43732	-617.50983	1184.50037	-928.31470	-860.25763	1222.17041	-1181.41284	-720.81207	1363.51624	-1255.28821	-788.14221	1186.27808	-1245.33020	-835.05743	1043.98193	-1264.79797	-829.36481	929.29584	-1239.36658	-785.16339	797.48407	-1263.77930	-839.86829	806.75513	-1270.06226	-813.63361	726.13196	-869.40515	-716.85822	1377.79102	-745.83899	-766.34314	1193.48352	-725.07861	-758.13306	1066.16553	-723.46045	-667.84906	976.24951	-785.09644	-550.15851	929.70068	-738.34094	-571.02386	903.78577	-754.03961	-495.35226	875.36713	-1095.19250	-661.96204	912.08752	-878.08600	-683.91650	907.87506	-1065.15649	-853.62811	920.09167	-922.90741	-866.07642	928.45099	-1175.51221	-612.38794	603.37946	-1164.19470	-582.64484	473.88013	-1178.77588	-585.49969	284.69925	-1144.78955	-532.08630	68.29462	-1089.38171	-563.94708	31.62346	-1159.87671	-382.76596	61.48744	-834.23859	-815.07324	587.71906	-860.47113	-852.49390	429.45316	-855.43195	-969.97717	296.43237	-903.59210	-1078.91431	118.61761	-950.72058	-1141.45630	107.06017	-921.47986	-968.12506	28.99262	-995.53162	-690.05267	1689.90381	-3102.45874	1973.06958	1024.05347			 
7	0.060	-1088.99976	-679.30084	1649.63794	-977.80463	-660.87335	1660.03467	-1073.59143	-786.28308	1586.76758	-954.64996	-769.11774	1595.65466	-1026.68152	-792.83350	1406.89087	-1003.65771	-833.68768	1115.42603	-1023.75262	-643.85626	1341.02747	-1018.30713	-605.10327	1184.79248	-932.93671	-848.34009	1221.35828	-1185.08105	-708.31909	1362.86829	-1258.94629	-773.97723	1184.76135	-1248.74646	-820.34241	1042.49329	-1268.15393	-814.61731	927.87476	-1242.54248	-770.90601	795.91785	-1267.18604	-825.45612	805.43420	-1274.11206	-799.32306	725.23120	-873.07513	-706.37860	1377.78442	-749.39191	-756.87537	1193.55273	-728.33862	-748.75122	1066.13623	-725.67029	-659.36432	975.46844	-786.15100	-541.34186	927.50134	-739.01392	-562.97833	902.07550	-754.46729	-487.63077	872.73334	-1097.61743	-649.06799	912.25433	-880.70789	-670.53131	907.48798	-1067.87415	-840.58374	919.90747	-925.28375	-853.03308	928.07861	-1175.92493	-598.56305	603.52917	-1165.63977	-569.68945	473.30057	-1176.99121	-575.00732	285.46225	-1145.54272	-527.72675	68.50390	-1090.43799	-561.75494	33.09173	-1159.10022	-378.91748	55.56477	-835.75763	-801.52246	587.20477	-861.45490	-838.67773	428.72504	-855.96918	-961.08862	299.36829	-902.46478	-1074.54004	123.97186	-949.42798	-1136.77966	115.04974	-921.67529	-967.59363	29.20595	-999.44025	-679.39624	1690.17444	-3102.29956	1973.03247	1024.04285	-3138.64673	2013.07397	1022.27344 
